<?xml version="1.0" encoding="UTF-8"?>
<svg version="1.1" xmlns="http://www.w3.org/2000/svg" width="1969" height="2048">
<path d="M0 0 C4.93253462 2.74188789 9.80453333 5.568923 14.640625 8.4765625 C20.38802807 11.92823128 26.19420362 15.27566535 32.00390625 18.62109375 C33.10331543 19.25499023 34.20272461 19.88888672 35.33544922 20.54199219 C44.07442688 25.57622584 52.83276597 30.57613082 61.59365845 35.57208252 C70.63447966 40.72933818 79.63584537 45.95105485 88.61816406 51.20947266 C96.24046403 55.66525719 103.89671936 60.06006521 111.56640625 64.43359375 C126.04090994 72.68775011 140.47362471 81.01326747 154.90039062 89.35058594 C158.122089 91.21212047 161.34411704 93.07308214 164.56640625 94.93359375 C165.63246094 95.54912109 166.69851563 96.16464844 167.796875 96.79882812 C176.38136222 101.75062417 184.98720918 106.66434243 193.59613037 111.57345581 C202.63612333 116.73025983 211.63665946 121.95153144 220.61816406 127.20947266 C228.24046403 131.66525719 235.89671936 136.06006521 243.56640625 140.43359375 C258.04090994 148.68775011 272.47362471 157.01326747 286.90039062 165.35058594 C290.122089 167.21212047 293.34411704 169.07308214 296.56640625 170.93359375 C297.63246094 171.54912109 298.69851563 172.16464844 299.796875 172.79882812 C307.19921601 177.06872591 314.61633202 181.31207969 322.03964233 185.54534912 C332.46188216 191.48889538 342.8589267 197.4730159 353.20922852 203.54125977 C357.84334605 206.25764935 362.485243 208.95587912 367.16015625 211.6015625 C368.02181396 212.09164795 368.88347168 212.5817334 369.77124023 213.08666992 C371.3583333 213.98767182 372.94870026 214.88294664 374.54321289 215.77075195 C383.93619747 221.11883926 391.49096808 227.8279665 394.69140625 238.49609375 C395.86356147 245.69628287 395.83591146 252.81665658 395.83007145 260.09931183 C395.83252143 261.48662243 395.83540606 262.87393231 395.83868423 264.2612412 C395.84643903 268.07586557 395.84802537 271.89047137 395.84861165 275.70510266 C395.85034278 279.85412825 395.85782932 284.00314409 395.8645882 288.15216398 C395.8756413 295.42446509 395.88301546 302.69676273 395.88798714 309.96907043 C395.89539649 320.78273619 395.90848042 331.59638986 395.92273289 342.41004849 C395.94654649 360.60010893 395.96574939 378.79017152 395.98233223 396.98023987 C395.99876837 414.99288731 396.01724907 433.00553074 396.0384655 451.01817322 C396.03978311 452.1377915 396.04110071 453.25740978 396.04245825 454.41095589 C396.04916026 460.09684054 396.05589884 465.78272515 396.06265151 471.46860975 C396.11042532 511.75055365 396.15360726 552.0325013 396.1940918 592.31445312 C396.23343454 631.44987256 396.27485534 670.5852889 396.3190918 709.72070312 C396.32045433 710.92684809 396.32181686 712.13299306 396.32322067 713.37568787 C396.33690595 725.4881981 396.3506335 737.60070827 396.36439202 749.71321842 C396.3924192 774.3881984 396.42016422 799.06317869 396.44773865 823.73815918 C396.44900685 824.87269591 396.45027505 826.00723264 396.45158167 827.17614927 C396.53624966 902.94945905 396.61434004 978.7227759 396.69140625 1054.49609375 C397.37850677 1054.09490326 398.0656073 1053.69371277 398.77352905 1053.28036499 C401.92046296 1051.44312734 405.06765133 1049.60632602 408.21484375 1047.76953125 C409.29564209 1047.13845459 410.37644043 1046.50737793 411.48999023 1045.85717773 C419.19885798 1041.35862644 426.93072184 1036.90470036 434.69140625 1032.49609375 C443.38694133 1027.5450124 452.05642003 1022.55228577 460.69140625 1017.49609375 C469.28657915 1012.46419585 477.91452847 1007.49220251 486.56640625 1002.55859375 C495.66220612 997.37166949 504.74852888 992.16927869 513.81640625 986.93359375 C514.88246094 986.31806641 515.94851563 985.70253906 517.046875 985.06835938 C520.26198148 983.21139181 523.47676003 981.35385796 526.69140625 979.49609375 C540.63984993 971.43520071 554.60144513 963.39899949 568.59613037 955.41873169 C576.65403837 950.82215152 584.68558411 946.18285215 592.69140625 941.49609375 C601.28663297 936.46428685 609.91452755 931.49220303 618.56640625 926.55859375 C630.88882208 919.53167599 643.18279078 912.45666838 655.46484375 905.359375 C658.72664632 903.47574325 661.99002469 901.59487054 665.25390625 899.71484375 C666.35331543 899.0813501 667.45272461 898.44785645 668.58544922 897.79516602 C670.61025561 896.62853849 672.63528558 895.46229882 674.66064453 894.29663086 C676.64564039 893.15243893 678.60778289 891.96788043 680.54786301 890.74908066 C683.76864334 888.85187544 687.00983336 887.65408529 690.53966141 886.4368782 C697.65913699 883.65708495 703.84587796 880.55948834 708.69140625 874.49609375 C712.99698238 862.90768536 711.80332282 849.67006587 711.50288796 837.50970984 C711.40285803 832.38629152 711.4425805 827.263668 711.46504211 822.1395874 C711.48516563 813.27111838 711.41826266 804.40678151 711.29186249 795.53923798 C711.1094557 782.70825726 711.06428132 769.87960945 711.05267647 757.04747036 C711.03050891 736.21262605 710.90430675 715.37979494 710.70947266 694.54589844 C710.52077995 674.33895379 710.37099188 654.13244359 710.28076172 633.92480469 C710.27518174 632.67959871 710.26960176 631.43439272 710.26385269 630.15145323 C710.20380779 616.55448427 710.15205025 602.95748655 710.10206985 589.36047745 C710.08864761 585.75300361 710.07515221 582.14553006 710.06156906 578.53805682 C710.052651 576.15994046 710.04385733 573.78182363 710.03519002 571.40370634 C709.97934986 556.28437503 709.88808972 541.16581588 709.75789118 526.04694319 C709.69253164 518.42023108 709.64029437 510.79344742 709.59188727 503.16661045 C709.55256728 497.1403386 709.49627546 491.11455832 709.42654888 485.08856581 C709.38841654 481.4272591 709.36711125 477.765999 709.35063758 474.1045368 C709.33969597 472.4317783 709.32182257 470.7590473 709.29620942 469.08644912 C709.10044982 455.97303011 710.73670493 446.59373849 720.09912109 436.81347656 C724.48484584 432.89284186 729.34581867 430.15315609 734.50390625 427.37109375 C736.22683215 426.40951517 737.94974267 425.44790815 739.671875 424.48490906 C741.46596242 423.48503299 743.26445257 422.49349237 745.06396484 421.50341797 C750.4289105 418.54463467 755.73955118 415.49089495 761.05429077 412.44317627 C762.82385933 411.4293236 764.59492228 410.4181309 766.36645508 409.40771484 C773.8336384 405.14705864 781.27207926 400.8395069 788.69140625 396.49609375 C797.28663297 391.46428685 805.91452755 386.49220303 814.56640625 381.55859375 C823.66220612 376.37166949 832.74852888 371.16927869 841.81640625 365.93359375 C842.88246094 365.31806641 843.94851563 364.70253906 845.046875 364.06835938 C848.26198148 362.21139181 851.47676003 360.35385796 854.69140625 358.49609375 C868.63984993 350.43520071 882.60144513 342.39899949 896.59613037 334.41873169 C904.65403837 329.82215152 912.68558411 325.18285215 920.69140625 320.49609375 C929.28663297 315.46428685 937.91452755 310.49220303 946.56640625 305.55859375 C955.66220612 300.37166949 964.74852888 295.16927869 973.81640625 289.93359375 C974.88246094 289.31806641 975.94851563 288.70253906 977.046875 288.06835938 C980.26198148 286.21139181 983.47676003 284.35385796 986.69140625 282.49609375 C1000.63984993 274.43520071 1014.60144513 266.39899949 1028.59613037 258.41873169 C1037.62728331 253.2669704 1046.61914833 248.05102253 1055.59179688 242.7980957 C1066.78589951 236.2542378 1078.04699885 229.8274007 1089.32128906 223.42285156 C1091.6980996 222.06398538 1094.06637571 220.6950048 1096.42871094 219.31152344 C1097.05087494 218.94956879 1097.67303894 218.58761414 1098.3140564 218.21469116 C1100.04922979 217.20455909 1101.78130782 216.18911531 1103.51318359 215.17333984 C1111.79028376 210.80525887 1120.29228272 210.22714574 1129.44921875 212.04296875 C1137.59369899 214.68307549 1144.81308214 219.53319471 1152.09179688 223.93896484 C1157.02650707 226.89478581 1162.0183265 229.75221313 1167.00390625 232.62109375 C1168.65531616 233.57302612 1168.65531616 233.57302612 1170.34008789 234.54418945 C1179.03359112 239.55192181 1187.74345945 244.53072825 1196.45687866 249.50369263 C1208.15044121 256.17802299 1219.8157032 262.90084484 1231.47363281 269.63720703 C1236.87811266 272.75933978 1242.28485343 275.87755256 1247.69140625 278.99609375 C1254.1690751 282.7324629 1260.64630608 286.46957722 1267.12109375 290.2109375 C1278.92770109 297.03112012 1290.75167625 303.81932635 1302.59613037 310.57345581 C1311.63612333 315.73025983 1320.63665946 320.95153144 1329.61816406 326.20947266 C1337.24046403 330.66525719 1344.89671936 335.06006521 1352.56640625 339.43359375 C1364.89165821 346.46212882 1377.18862692 353.53849809 1389.47363281 360.63720703 C1394.87811266 363.75933978 1400.28485343 366.87755256 1405.69140625 369.99609375 C1412.1690751 373.7324629 1418.64630608 377.46957722 1425.12109375 381.2109375 C1435.74590547 387.34844629 1446.38089464 393.46701629 1457.03964233 399.54534912 C1467.4627397 405.48938441 1477.86165108 411.47234105 1488.21142578 417.54345703 C1492.83065148 420.25224778 1497.45844851 422.93982624 1502.125 425.56640625 C1502.982146 426.05197998 1503.83929199 426.53755371 1504.72241211 427.0378418 C1506.295705 427.92724311 1507.87296459 428.8096893 1509.45532227 429.68286133 C1519.36760657 435.30716486 1526.82204905 442.11427883 1530.05708325 453.28464234 C1531.42791377 460.22488508 1531.10535466 467.35746085 1531.0790863 474.40464783 C1531.08326274 476.22860385 1531.08874195 478.05255728 1531.09540612 479.87650591 C1531.10983866 484.87222335 1531.10562283 489.8677755 1531.0982393 494.86350191 C1531.09350456 500.25760399 1531.10602017 505.65167047 1531.11625671 511.04576111 C1531.13344368 521.60661307 1531.13428497 532.16740553 1531.12904381 542.72826784 C1531.1250009 551.31251452 1531.12644711 559.89674362 1531.13179207 568.48098946 C1531.13254049 569.70316827 1531.13328891 570.92534709 1531.13406001 572.18456163 C1531.1355915 574.66747725 1531.13712985 577.15039287 1531.13867498 579.63330848 C1531.15239951 602.91179874 1531.14696253 626.19025539 1531.13548977 649.46874488 C1531.12555618 670.76146149 1531.13850033 692.0540525 1531.16242396 713.34675842 C1531.18681035 735.21626715 1531.19642404 757.08573541 1531.18977123 778.95525748 C1531.18627816 791.2309033 1531.18851703 803.5064823 1531.20602226 815.78211784 C1531.22073839 826.23137004 1531.22138725 836.68050834 1531.20395135 847.12975829 C1531.19543445 852.45973821 1531.19330887 857.7895146 1531.20860291 863.11948395 C1531.22243897 868.00182634 1531.21770055 872.88379062 1531.19836367 877.76611108 C1531.19460009 879.52911759 1531.19753595 881.29215431 1531.20797532 883.05513393 C1531.27212889 894.72194816 1530.60433092 906.06314482 1522.8515625 915.4921875 C1512.46031257 925.13180994 1498.00021465 931.30547024 1485.72265625 938.125 C1480.86079699 940.83148532 1476.03905716 943.5940143 1471.25390625 946.43359375 C1454.54689735 956.34272006 1437.66254395 965.9499303 1420.78915405 975.57208252 C1412.73041884 980.169116 1404.69804243 984.80885879 1396.69140625 989.49609375 C1388.09617953 994.52790065 1379.46828495 999.49998447 1370.81640625 1004.43359375 C1358.49115429 1011.46212882 1346.19418558 1018.53849809 1333.90917969 1025.63720703 C1327.42015529 1029.38587409 1320.92803675 1033.12918042 1314.43652344 1036.87353516 C1309.04392311 1039.98427714 1303.65202803 1043.09622702 1298.26171875 1046.2109375 C1286.45511141 1053.03112012 1274.63113625 1059.81932635 1262.78668213 1066.57345581 C1254.72877413 1071.17003598 1246.69722839 1075.80933535 1238.69140625 1080.49609375 C1230.09617961 1085.5279006 1221.46828978 1090.49999288 1212.81640625 1095.43359375 C1203.57468651 1100.70368638 1194.34311607 1105.99045286 1185.12890625 1111.30859375 C1184.06365723 1111.92283203 1182.9984082 1112.53707031 1181.90087891 1113.16992188 C1176.89640499 1116.05798338 1171.89849476 1118.95637633 1166.9140625 1121.87890625 C1166.02726807 1122.39735107 1165.14047363 1122.9157959 1164.22680664 1123.44995117 C1162.58187133 1124.41251948 1160.93899684 1125.37862154 1159.29858398 1126.34887695 C1153.91469261 1129.49609375 1153.91469261 1129.49609375 1151.69140625 1129.49609375 C1151.69292513 1130.38311977 1151.69444401 1131.2701458 1151.69600892 1132.18405139 C1151.78551178 1184.75074206 1151.85414772 1237.31742464 1151.89566757 1289.88417625 C1151.90067042 1296.19524523 1151.90584771 1302.50631406 1151.91113281 1308.81738281 C1151.91270668 1310.70202138 1151.91270668 1310.70202138 1151.91431233 1312.62473346 C1151.93171986 1332.97139383 1151.96325949 1353.318009 1152.00001743 1373.66464256 C1152.03741713 1394.54053711 1152.05964006 1415.41640799 1152.06776023 1436.29233468 C1152.07325 1449.17498202 1152.09059211 1462.05750165 1152.12307212 1474.94010969 C1152.14420797 1483.77294136 1152.15060838 1492.60570695 1152.14541176 1501.43856208 C1152.14284856 1506.53545921 1152.14679135 1511.63213307 1152.16822815 1516.72899055 C1152.18772043 1521.39763259 1152.18865881 1526.06590163 1152.17500183 1530.73456098 C1152.17331439 1532.42114172 1152.17836585 1534.10774592 1152.19093898 1535.79428063 C1152.27366016 1547.57804264 1151.39661494 1557.66140933 1142.87109375 1566.59375 C1138.92046378 1570.04170124 1134.51590738 1572.60370004 1129.97167969 1575.1953125 C1127.29991943 1576.71941728 1124.64035627 1578.26386299 1121.98046875 1579.80859375 C1116.96021826 1582.71872122 1111.93198504 1585.61466993 1106.89976501 1588.50404358 C1100.82505951 1591.99230204 1094.75816635 1595.49404189 1088.69140625 1598.99609375 C1086.52215975 1600.24743802 1084.35288888 1601.49874003 1082.18359375 1602.75 C1077.87538974 1605.23540277 1073.56817836 1607.72251352 1069.26171875 1610.2109375 C1057.45511141 1617.03112012 1045.63113625 1623.81932635 1033.78668213 1630.57345581 C1025.72877413 1635.17003598 1017.69722839 1639.80933535 1009.69140625 1644.49609375 C1001.09617953 1649.52790065 992.46828495 1654.49998447 983.81640625 1659.43359375 C974.72060638 1664.62051801 965.63428362 1669.82290881 956.56640625 1675.05859375 C955.50035156 1675.67412109 954.43429687 1676.28964844 953.3359375 1676.92382812 C950.12083102 1678.78079569 946.90605247 1680.63832954 943.69140625 1682.49609375 C929.74296257 1690.55698679 915.78136737 1698.59318801 901.78668213 1706.57345581 C893.72877413 1711.17003598 885.69722839 1715.80933535 877.69140625 1720.49609375 C869.09617953 1725.52790065 860.46828495 1730.49998447 851.81640625 1735.43359375 C842.72060638 1740.62051801 833.63428362 1745.82290881 824.56640625 1751.05859375 C823.50035156 1751.67412109 822.43429687 1752.28964844 821.3359375 1752.92382812 C818.12083102 1754.78079569 814.90605247 1756.63832954 811.69140625 1758.49609375 C797.74296257 1766.55698679 783.78136737 1774.59318801 769.78668213 1782.57345581 C761.72877413 1787.17003598 753.69722839 1791.80933535 745.69140625 1796.49609375 C735.9163786 1802.21857824 726.09353669 1807.85452815 716.25390625 1813.46484375 C708.3860322 1817.95165112 700.53315223 1822.46374133 692.69140625 1826.99609375 C683.66609779 1832.21251861 674.62212822 1837.3952435 665.56640625 1842.55859375 C656.91444766 1847.49206109 648.2866312 1852.46428788 639.69140625 1857.49609375 C631.09617953 1862.52790065 622.46828495 1867.49998447 613.81640625 1872.43359375 C604.72060638 1877.62051801 595.63428362 1882.82290881 586.56640625 1888.05859375 C585.50035156 1888.67412109 584.43429687 1889.28964844 583.3359375 1889.92382812 C580.12083102 1891.78079569 576.90605247 1893.63832954 573.69140625 1895.49609375 C559.74296257 1903.55698679 545.78136737 1911.59318801 531.78668213 1919.57345581 C523.72877413 1924.17003598 515.69722839 1928.80933535 507.69140625 1933.49609375 C499.09617953 1938.52790065 490.46828495 1943.49998447 481.81640625 1948.43359375 C472.72060638 1953.62051801 463.63428362 1958.82290881 454.56640625 1964.05859375 C453.50035156 1964.67412109 452.43429687 1965.28964844 451.3359375 1965.92382812 C448.12083102 1967.78079569 444.90605247 1969.63832954 441.69140625 1971.49609375 C428.66611967 1979.02348852 415.63608099 1986.54241063 402.57879639 1994.01419067 C400.81599714 1995.02305851 399.05374052 1996.03287431 397.29150391 1997.04272461 C368.71808968 2013.37489929 368.71808968 2013.37489929 356.60180664 2010.85302734 C348.94674597 2008.50526012 342.42942867 2005.44252521 335.62890625 2001.24609375 C333.53215388 1999.9880756 331.4344581 1998.73162883 329.3359375 1997.4765625 C328.25135254 1996.82349121 327.16676758 1996.17041992 326.04931641 1995.49755859 C320.93350511 1992.44830594 315.75909746 1989.50308789 310.58102417 1986.56137085 C307.62092276 1984.87923793 304.66401876 1983.1915052 301.70703125 1981.50390625 C301.12183212 1981.17003403 300.536633 1980.8361618 299.93370056 1980.49217224 C290.57201068 1975.14822346 281.24256951 1969.74814172 271.90917969 1964.35498047 C266.50469984 1961.23284772 261.09795907 1958.11463494 255.69140625 1954.99609375 C249.2137374 1951.2597246 242.73650642 1947.52261028 236.26171875 1943.78125 C224.45511141 1936.96106738 212.63113625 1930.17286115 200.78668213 1923.41873169 C191.74668917 1918.26192767 182.74615304 1913.04065606 173.76464844 1907.78271484 C166.14234847 1903.32693031 158.48609314 1898.93212229 150.81640625 1894.55859375 C136.34190256 1886.30443739 121.90918779 1877.97892003 107.48242188 1869.64160156 C104.2607235 1867.78006703 101.03869546 1865.91910536 97.81640625 1864.05859375 C96.21732422 1863.13530273 96.21732422 1863.13530273 94.5859375 1862.19335938 C86.00145028 1857.24156333 77.39560332 1852.32784507 68.78668213 1847.41873169 C59.74668917 1842.26192767 50.74615304 1837.04065606 41.76464844 1831.78271484 C34.14234847 1827.32693031 26.48609314 1822.93212229 18.81640625 1818.55859375 C6.49115429 1811.53005868 -5.80581442 1804.45368941 -18.09082031 1797.35498047 C-23.49530016 1794.23284772 -28.90204093 1791.11463494 -34.30859375 1787.99609375 C-40.7862626 1784.2597246 -47.26349358 1780.52261028 -53.73828125 1776.78125 C-65.54488859 1769.96106738 -77.36886375 1763.17286115 -89.21331787 1756.41873169 C-98.25331083 1751.26192767 -107.25384696 1746.04065606 -116.23535156 1740.78271484 C-123.85765153 1736.32693031 -131.51390686 1731.93212229 -139.18359375 1727.55859375 C-153.65809744 1719.30443739 -168.09081221 1710.97892003 -182.51757812 1702.64160156 C-185.7392765 1700.78006703 -188.96130454 1698.91910536 -192.18359375 1697.05859375 C-193.78267578 1696.13530273 -193.78267578 1696.13530273 -195.4140625 1695.19335938 C-203.99854972 1690.24156333 -212.60439668 1685.32784507 -221.21331787 1680.41873169 C-230.25331083 1675.26192767 -239.25384696 1670.04065606 -248.23535156 1664.78271484 C-255.85765153 1660.32693031 -263.51390686 1655.93212229 -271.18359375 1651.55859375 C-285.65809744 1643.30443739 -300.09081221 1634.97892003 -314.51757812 1626.64160156 C-317.7392765 1624.78006703 -320.96130454 1622.91910536 -324.18359375 1621.05859375 C-325.78267578 1620.13530273 -325.78267578 1620.13530273 -327.4140625 1619.19335938 C-334.81594157 1614.92372805 -342.23260145 1610.68065326 -349.65545654 1606.44766235 C-359.95957901 1600.57123896 -370.24427673 1594.66354769 -380.47485352 1588.65966797 C-385.59346831 1585.65579614 -390.72685718 1582.68351798 -395.890625 1579.7578125 C-396.97504883 1579.1385791 -398.05947266 1578.5193457 -399.17675781 1577.88134766 C-401.23999109 1576.70402423 -403.30805361 1575.5351058 -405.38183594 1574.37646484 C-415.37152651 1568.64915688 -421.63847902 1562.50643794 -425.30859375 1551.49609375 C-425.4060979 1548.5615013 -425.44511516 1545.65074701 -425.43854558 1542.71601051 C-425.44044483 1541.80163549 -425.44234407 1540.88726046 -425.44430086 1539.9451771 C-425.44949517 1536.84652944 -425.44750367 1533.74792666 -425.44560814 1530.64927578 C-425.44786272 1528.40957812 -425.45055361 1526.16988087 -425.45364398 1523.93018422 C-425.46090859 1517.72549662 -425.46187324 1511.52082109 -425.46186675 1505.31612981 C-425.46282299 1499.2780222 -425.46844349 1493.23992006 -425.47391774 1487.20181529 C-425.48507807 1474.69425904 -425.49139705 1462.18670441 -425.49509048 1449.67914391 C-425.4988421 1436.99763036 -425.50471174 1424.31612053 -425.51316833 1411.63460922 C-425.51369943 1410.83467563 -425.51423052 1410.03474203 -425.51477771 1409.21056803 C-425.51694436 1405.9527374 -425.51912098 1402.69490677 -425.52131165 1399.43707616 C-425.54783173 1359.91678213 -425.56338172 1320.39648612 -425.57647453 1280.87618568 C-425.58072315 1268.06259583 -425.58529075 1255.24900613 -425.59005785 1242.43541646 C-425.61496436 1175.33368366 -425.63703055 1108.23195044 -425.64924823 1041.13021401 C-425.65014561 1036.21713874 -425.65106031 1031.30406347 -425.65197597 1026.3909882 C-425.65215758 1025.4163771 -425.65233919 1024.441766 -425.65252631 1023.43762123 C-425.65436901 1013.5632244 -425.65623487 1003.68882758 -425.6581244 993.81443076 C-425.65850245 991.83456508 -425.65887874 989.85469941 -425.65925328 987.87483373 C-425.67128491 924.28053004 -425.70097568 860.68625371 -425.74266839 797.09196291 C-425.77261201 751.40503478 -425.80024341 705.71811226 -425.80994606 660.03117466 C-425.81014662 659.09189048 -425.81034717 658.15260631 -425.81055381 657.18485898 C-425.81490411 636.56660606 -425.81785003 615.94835317 -425.81948032 595.33009987 C-425.82015669 587.03440843 -425.82101221 578.73871701 -425.82191849 570.44302559 C-425.82201258 569.53509862 -425.82210668 568.62717165 -425.82220363 567.69173174 C-425.82531759 538.42824005 -425.84383693 509.16478312 -425.87026846 479.90130396 C-425.89679947 450.430597 -425.90756756 420.95992887 -425.89653247 391.48921073 C-425.89501089 387.41860244 -425.89366548 383.3479941 -425.89242554 379.27738571 C-425.89217581 378.4794184 -425.89192608 377.68145109 -425.89166878 376.85930295 C-425.88817104 364.21372761 -425.90149697 351.56822792 -425.92180327 338.92267075 C-425.94141381 326.49420416 -425.9432543 314.06584106 -425.92607698 301.6373697 C-425.91737451 294.98636732 -425.9172139 288.33556862 -425.93868844 281.68457436 C-425.95805595 275.63782292 -425.95454568 269.59153964 -425.93253496 263.54480119 C-425.9286605 261.36717268 -425.93322626 259.18950923 -425.94712197 257.01192161 C-426.07070807 236.30887193 -426.07070807 236.30887193 -420.30859375 228.49609375 C-419.25671875 226.91828125 -419.25671875 226.91828125 -418.18359375 225.30859375 C-411.54515101 217.93069191 -400.76388747 213.36555697 -392.24609375 208.49609375 C-390.52759772 207.50933092 -388.80910416 206.52256374 -387.09075928 205.53553772 C-385.32475537 204.52150267 -383.55815043 203.50852045 -381.79150391 202.49560547 C-377.39758435 199.97487436 -373.01240965 197.43904874 -368.62670898 194.90405273 C-357.90533185 188.70763942 -347.16095667 182.55280573 -336.40386963 176.41873169 C-328.34596163 171.82215152 -320.31441589 167.18285215 -312.30859375 162.49609375 C-303.71336703 157.46428685 -295.08547245 152.49220303 -286.43359375 147.55859375 C-277.33779388 142.37166949 -268.25147112 137.16927869 -259.18359375 131.93359375 C-258.11753906 131.31806641 -257.05148437 130.70253906 -255.953125 130.06835938 C-252.73801852 128.21139181 -249.52323997 126.35385796 -246.30859375 124.49609375 C-232.36015007 116.43520071 -218.39855487 108.39899949 -204.40386963 100.41873169 C-196.34596163 95.82215152 -188.31441589 91.18285215 -180.30859375 86.49609375 C-171.71336703 81.46428685 -163.08547245 76.49220303 -154.43359375 71.55859375 C-142.10834179 64.53005868 -129.81137308 57.45368941 -117.52636719 50.35498047 C-111.03734279 46.60631341 -104.54522425 42.86300708 -98.05371094 39.11865234 C-92.66111061 36.00791036 -87.26921553 32.89596048 -81.87890625 29.78125 C-75.35847847 26.01429782 -68.83503683 22.25261461 -62.30859375 18.49609375 C-61.70072021 18.14619385 -61.09284668 17.79629395 -60.46655273 17.43579102 C-56.65662218 15.2433255 -52.84492459 13.05397375 -49.03118896 10.86813354 C-47.81709266 10.17188616 -46.60341569 9.47490695 -45.39019775 8.77713013 C-31.25369208 0.64887421 -16.29008087 -7.75590341 0 0 Z M-23.93359375 70.62109375 C-25.125896 71.28890869 -25.125896 71.28890869 -26.34228516 71.97021484 C-33.85098929 76.19647261 -41.28756816 80.54544102 -48.72167969 84.90112305 C-56.51359956 89.46267839 -64.33969631 93.96222333 -72.18359375 98.43359375 C-81.23949429 103.59662871 -90.2832876 108.77967023 -99.30859375 113.99609375 C-108.33390221 119.21251861 -117.37787178 124.3952435 -126.43359375 129.55859375 C-135.08555234 134.49206109 -143.7133688 139.46428788 -152.30859375 144.49609375 C-160.90382047 149.52790065 -169.53171505 154.49998447 -178.18359375 159.43359375 C-187.27939362 164.62051801 -196.36571638 169.82290881 -205.43359375 175.05859375 C-206.49964844 175.67412109 -207.56570312 176.28964844 -208.6640625 176.92382812 C-211.87916898 178.78079569 -215.09394753 180.63832954 -218.30859375 182.49609375 C-232.25703743 190.55698679 -246.21863263 198.59318801 -260.21331787 206.57345581 C-269.23821625 211.72164922 -278.22653057 216.92953767 -287.18920898 222.18530273 C-292.7219915 225.42374521 -298.2746615 228.62352452 -303.8515625 231.78515625 C-304.48885284 232.14695984 -305.12614319 232.50876343 -305.78274536 232.88153076 C-308.89701211 234.64920382 -312.01367102 236.41237956 -315.13476562 238.16796875 C-316.25818359 238.80476562 -317.38160156 239.4415625 -318.5390625 240.09765625 C-319.53317139 240.65791504 -320.52728027 241.21817383 -321.55151367 241.79541016 C-324.33019607 243.50941897 -326.80539414 245.40452379 -329.30859375 247.49609375 C-328.2405249 248.10529663 -328.2405249 248.10529663 -327.15087891 248.72680664 C-308.76908537 259.21410049 -290.42294558 269.76141507 -272.09960938 280.35058594 C-268.877911 282.21212047 -265.65588296 284.07308214 -262.43359375 285.93359375 C-261.36753906 286.54912109 -260.30148437 287.16464844 -259.203125 287.79882812 C-250.61863778 292.75062417 -242.01279082 297.66434243 -233.40386963 302.57345581 C-224.36387667 307.73025983 -215.36334054 312.95153144 -206.38183594 318.20947266 C-198.75953597 322.66525719 -191.10328064 327.06006521 -183.43359375 331.43359375 C-168.95909006 339.68775011 -154.52637529 348.01326747 -140.09960938 356.35058594 C-136.877911 358.21212047 -133.65588296 360.07308214 -130.43359375 361.93359375 C-129.36753906 362.54912109 -128.30148437 363.16464844 -127.203125 363.79882812 C-118.61863778 368.75062417 -110.01279082 373.66434243 -101.40386963 378.57345581 C-93.34596122 383.17003621 -85.31443734 387.8093715 -77.30859375 392.49609375 C-67.43334207 398.27670871 -57.52291551 403.99418029 -47.56787109 409.63623047 C-42.0317804 412.77663833 -36.52318267 415.9495509 -31.078125 419.24609375 C-30.11994873 419.81827637 -29.16177246 420.39045898 -28.17456055 420.97998047 C-26.39901124 422.04306432 -24.63277342 423.12192206 -22.87817383 424.21923828 C-18.43901303 426.92601426 -18.43901303 426.92601426 -13.40234375 427.18359375 C-8.77622867 424.66025825 -4.20780921 422.07372303 0.31640625 419.37109375 C2.47716056 418.09516118 4.63864877 416.8204708 6.80078125 415.546875 C7.92935547 414.88123535 9.05792969 414.2155957 10.22070312 413.52978516 C15.9708595 410.15097125 21.77082494 406.85860934 27.56640625 403.55859375 C29.93650413 402.2075678 32.30622579 400.85588329 34.67578125 399.50390625 C35.26101563 399.17002396 35.84625 398.83614166 36.44921875 398.49214172 C42.58226606 394.99109837 48.70065636 391.46475526 54.81640625 387.93359375 C56.41548828 387.01030273 56.41548828 387.01030273 58.046875 386.06835938 C61.26198148 384.21139181 64.47676003 382.35385796 67.69140625 380.49609375 C81.63984993 372.43520071 95.60144513 364.39899949 109.59613037 356.41873169 C117.65403837 351.82215152 125.68558411 347.18285215 133.69140625 342.49609375 C142.28663297 337.46428685 150.91452755 332.49220303 159.56640625 327.55859375 C171.89165821 320.53005868 184.18862692 313.45368941 196.47363281 306.35498047 C202.96265721 302.60631341 209.45477575 298.86300708 215.94628906 295.11865234 C221.33888939 292.00791036 226.73078447 288.89596048 232.12109375 285.78125 C244.03160159 278.90094754 255.95810565 272.04981536 267.90484619 265.23269653 C278.19150049 259.36239861 288.4518647 253.44814253 298.69140625 247.49609375 C294.03699927 243.40021561 288.77359027 240.60580009 283.37890625 237.62109375 C275.20685549 233.05270162 267.07941387 228.42058563 259.00390625 223.68359375 C250.30528905 218.58784446 241.57417115 213.5518435 232.81640625 208.55859375 C218.34176009 200.30468872 203.90918609 191.97891904 189.48242188 183.64160156 C186.2607235 181.78006703 183.03869546 179.91910536 179.81640625 178.05859375 C178.75035156 177.44306641 177.68429687 176.82753906 176.5859375 176.19335938 C168.00145028 171.24156333 159.39560332 166.32784507 150.78668213 161.41873169 C141.74668917 156.26192767 132.74615304 151.04065606 123.76464844 145.78271484 C116.14234847 141.32693031 108.48609314 136.93212229 100.81640625 132.55859375 C86.34190256 124.30443739 71.90918779 115.97892003 57.48242188 107.64160156 C43.95998236 99.82817982 30.42574331 92.03620772 16.85839844 84.30102539 C11.34024574 81.15452582 5.8267531 78.00083249 0.328125 74.8203125 C-0.64922607 74.25658936 -1.62657715 73.69286621 -2.63354492 73.11206055 C-4.45473099 72.06101594 -6.27401452 71.00666543 -8.09106445 69.94848633 C-8.88730225 69.48982178 -9.68354004 69.03115723 -10.50390625 68.55859375 C-11.5405542 67.95724609 -11.5405542 67.95724609 -12.59814453 67.34375 C-16.79231523 65.26522293 -20.27665668 68.55645294 -23.93359375 70.62109375 Z M1114.23046875 282.99609375 C1113.29847656 283.54523438 1112.36648438 284.094375 1111.40625 284.66015625 C1110.38660156 285.26601563 1109.36695313 285.871875 1108.31640625 286.49609375 C1106.1217809 287.78892759 1103.92643949 289.08054648 1101.73046875 290.37109375 C1101.15750061 290.70818359 1100.58453247 291.04527344 1099.99420166 291.39257812 C1093.59346439 295.15256982 1087.14303094 298.82436849 1080.69140625 302.49609375 C1071.99671504 307.44867935 1063.32641558 312.4398882 1054.69140625 317.49609375 C1046.09623335 322.52799165 1037.46828403 327.49998499 1028.81640625 332.43359375 C1019.72060638 337.62051801 1010.63428362 342.82290881 1001.56640625 348.05859375 C1000.50035156 348.67412109 999.43429687 349.28964844 998.3359375 349.92382812 C995.12083102 351.78079569 991.90605247 353.63832954 988.69140625 355.49609375 C974.74296257 363.55698679 960.78136737 371.59318801 946.78668213 379.57345581 C938.72877413 384.17003598 930.69722839 388.80933535 922.69140625 393.49609375 C912.9163786 399.21857824 903.09353669 404.85452815 893.25390625 410.46484375 C884.31517809 415.56232638 875.39836239 420.69699092 866.48974609 425.84692383 C860.87279741 429.09146757 855.24947794 432.32419837 849.61328125 435.53515625 C849.02053406 435.87287048 848.42778687 436.21058472 847.81707764 436.55853271 C846.61995862 437.24052656 845.42283541 437.92251306 844.22570801 438.60449219 C831.63878983 445.77585803 819.13318376 453.07576519 806.69140625 460.49609375 C809.46877971 463.48494643 812.13069616 465.50660283 815.70703125 467.45703125 C816.69807861 468.00343262 817.68912598 468.54983398 818.71020508 469.11279297 C819.77650146 469.69303223 820.84279785 470.27327148 821.94140625 470.87109375 C824.22235596 472.12969658 826.50227998 473.3901598 828.78125 474.65234375 C829.3611821 474.97298798 829.9411142 475.2936322 830.53862 475.62399292 C836.2450734 478.78628912 841.87908674 482.06644129 847.50390625 485.37109375 C856.19955655 490.4725611 864.93147276 495.50618062 873.69140625 500.49609375 C882.38558788 505.44958821 891.056383 510.43988005 899.69140625 515.49609375 C908.28657915 520.52799165 916.91452847 525.49998499 925.56640625 530.43359375 C940.04090994 538.68775011 954.47362471 547.01326747 968.90039062 555.35058594 C972.122089 557.21212047 975.34411704 559.07308214 978.56640625 560.93359375 C979.63246094 561.54912109 980.69851563 562.16464844 981.796875 562.79882812 C990.38136222 567.75062417 998.98720918 572.66434243 1007.59613037 577.57345581 C1016.63612333 582.73025983 1025.63665946 587.95153144 1034.61816406 593.20947266 C1043.41554663 598.35217779 1052.26124778 603.40875555 1061.11352539 608.45605469 C1068.03452871 612.40286024 1074.94644278 616.36466363 1081.84545898 620.34985352 C1084.01182886 621.60096474 1086.17928769 622.85019253 1088.34790039 624.09741211 C1093.52317989 627.07542424 1098.68079927 630.07757015 1103.80859375 633.13671875 C1104.77095947 633.70422852 1105.7333252 634.27173828 1106.72485352 634.85644531 C1108.52663524 635.91950128 1110.32188682 636.99373501 1112.10913086 638.08105469 C1112.90585205 638.54801758 1113.70257324 639.01498047 1114.5234375 639.49609375 C1115.21155518 639.90859375 1115.89967285 640.32109375 1116.60864258 640.74609375 C1119.40010504 641.75129509 1120.87366955 641.37730608 1123.69140625 640.49609375 C1126.29775329 639.25056655 1126.29775329 639.25056655 1128.953125 637.64453125 C1129.97599609 637.04833984 1130.99886719 636.45214844 1132.05273438 635.83789062 C1133.15037109 635.18884766 1134.24800781 634.53980469 1135.37890625 633.87109375 C1136.54057547 633.19130457 1137.70269318 632.51228127 1138.86523438 631.83398438 C1141.27958071 630.42451072 1143.69196547 629.01176388 1146.10302734 627.59667969 C1151.61459166 624.36553879 1157.15437277 621.18331569 1162.69140625 617.99609375 C1164.86082101 616.74504121 1167.03009144 615.49373837 1169.19921875 614.2421875 C1170.27204102 613.62327637 1171.34486328 613.00436523 1172.45019531 612.36669922 C1175.6744163 610.50589919 1178.89785499 608.64375084 1182.12109375 606.78125 C1193.92770109 599.96106738 1205.75167625 593.17286115 1217.59613037 586.41873169 C1225.65403837 581.82215152 1233.68558411 577.18285215 1241.69140625 572.49609375 C1250.28663297 567.46428685 1258.91452755 562.49220303 1267.56640625 557.55859375 C1279.89165821 550.53005868 1292.18862692 543.45368941 1304.47363281 536.35498047 C1310.96265721 532.60631341 1317.45477575 528.86300708 1323.94628906 525.11865234 C1329.33888939 522.00791036 1334.73078447 518.89596048 1340.12109375 515.78125 C1350.74562095 509.64390557 1361.3803335 503.52551776 1372.03881836 497.4473877 C1392.70579066 485.66059983 1413.22437832 473.62628402 1433.69140625 461.49609375 C1430.28306979 458.65057335 1426.85673641 456.31397773 1422.9921875 454.1328125 C1421.87908203 453.50117188 1420.76597656 452.86953125 1419.61914062 452.21875 C1419.03092529 451.88762207 1418.44270996 451.55649414 1417.83666992 451.21533203 C1415.32284566 449.80019665 1412.8144589 448.3755417 1410.30563354 446.9515686 C1409.00800573 446.21520634 1407.71009061 445.47935015 1406.41189575 444.74398804 C1400.15137343 441.19651265 1393.91955478 437.60006828 1387.69140625 433.99609375 C1379.25815354 429.1212325 1370.80961121 424.27401763 1362.34765625 419.44921875 C1352.1195529 413.61740544 1341.92550609 407.73107145 1331.76464844 401.78271484 C1324.14234847 397.32693031 1316.48609314 392.93212229 1308.81640625 388.55859375 C1294.34190256 380.30443739 1279.90918779 371.97892003 1265.48242188 363.64160156 C1262.2607235 361.78006703 1259.03869546 359.91910536 1255.81640625 358.05859375 C1254.75035156 357.44306641 1253.68429687 356.82753906 1252.5859375 356.19335938 C1244.00145028 351.24156333 1235.39560332 346.32784507 1226.78668213 341.41873169 C1217.74668917 336.26192767 1208.74615304 331.04065606 1199.76464844 325.78271484 C1190.97095547 320.64216654 1182.12922342 315.58723742 1173.28027344 310.54272461 C1165.15175295 305.9079717 1157.04216614 301.24171608 1148.94140625 296.55859375 C1138.07987283 290.28511908 1138.07987283 290.28511908 1127.19140625 284.05859375 C1126.22122559 283.5008728 1126.22122559 283.5008728 1125.23144531 282.93188477 C1120.30399509 280.14600126 1119.03118972 280.14729346 1114.23046875 282.99609375 Z M-361.30859375 303.49609375 C-361.30859375 706.75609375 -361.30859375 1110.01609375 -361.30859375 1525.49609375 C-353.05859375 1530.11609375 -344.80859375 1534.73609375 -336.30859375 1539.49609375 C-327.87109375 1544.43359375 -327.87109375 1544.43359375 -323.83203125 1546.828125 C-308.46310203 1555.92309561 -292.91935079 1564.72569557 -277.40634155 1573.57208252 C-268.36552034 1578.72933818 -259.36415463 1583.95105485 -250.38183594 1589.20947266 C-242.75953597 1593.66525719 -235.10328064 1598.06006521 -227.43359375 1602.43359375 C-212.95909006 1610.68775011 -198.52637529 1619.01326747 -184.09960938 1627.35058594 C-180.877911 1629.21212047 -177.65588296 1631.07308214 -174.43359375 1632.93359375 C-172.83451172 1633.85688477 -172.83451172 1633.85688477 -171.203125 1634.79882812 C-162.61863778 1639.75062417 -154.01279082 1644.66434243 -145.40386963 1649.57345581 C-136.36387667 1654.73025983 -127.36334054 1659.95153144 -118.38183594 1665.20947266 C-110.75953597 1669.66525719 -103.10328064 1674.06006521 -95.43359375 1678.43359375 C-80.95909006 1686.68775011 -66.52637529 1695.01326747 -52.09960938 1703.35058594 C-48.877911 1705.21212047 -45.65588296 1707.07308214 -42.43359375 1708.93359375 C-40.83451172 1709.85688477 -40.83451172 1709.85688477 -39.203125 1710.79882812 C-30.61863778 1715.75062417 -22.01279082 1720.66434243 -13.40386963 1725.57345581 C-4.36387667 1730.73025983 4.63665946 1735.95153144 13.61816406 1741.20947266 C21.24046403 1745.66525719 28.89671936 1750.06006521 36.56640625 1754.43359375 C48.89165821 1761.46212882 61.18862692 1768.53849809 73.47363281 1775.63720703 C78.87811266 1778.75933978 84.28485343 1781.87755256 89.69140625 1784.99609375 C96.1690751 1788.7324629 102.64630608 1792.46957722 109.12109375 1796.2109375 C120.92770109 1803.03112012 132.75167625 1809.81932635 144.59613037 1816.57345581 C153.63612333 1821.73025983 162.63665946 1826.95153144 171.61816406 1832.20947266 C179.24046403 1836.66525719 186.89671936 1841.06006521 194.56640625 1845.43359375 C209.04090994 1853.68775011 223.47362471 1862.01326747 237.90039062 1870.35058594 C241.122089 1872.21212047 244.34411704 1874.07308214 247.56640625 1875.93359375 C249.16548828 1876.85688477 249.16548828 1876.85688477 250.796875 1877.79882812 C258.19939345 1882.06882826 265.6166958 1886.31226644 273.04019165 1890.54562378 C288.06718108 1899.11547173 303.03726756 1907.78127824 317.92578125 1916.58984375 C318.72540283 1917.06244629 319.52502441 1917.53504883 320.34887695 1918.02197266 C321.82785328 1918.89710095 323.30563125 1919.77425887 324.78198242 1920.65380859 C327.56224296 1922.62113862 327.56224296 1922.62113862 330.69140625 1923.49609375 C330.69140625 1804.03609375 330.69140625 1684.57609375 330.69140625 1561.49609375 C322.44140625 1556.87609375 314.19140625 1552.25609375 305.69140625 1547.49609375 C295.06640625 1541.43359375 295.06640625 1541.43359375 289.90625 1538.4765625 C284.49294491 1535.37756014 279.06188225 1532.31044183 273.62890625 1529.24609375 C265.60308091 1524.71874018 257.59613677 1520.15929694 249.59988403 1515.57995605 C239.14056787 1509.59011342 228.65103763 1503.65835184 218.12548828 1497.78540039 C209.68845923 1493.07098212 201.29598064 1488.28100203 192.91064453 1483.47558594 C184.69647501 1478.76952782 176.45846871 1474.10879866 168.19140625 1469.49609375 C158.72926315 1464.21657951 149.31154886 1458.86299752 139.91064453 1453.47558594 C131.69647501 1448.76952782 123.45846871 1444.10879866 115.19140625 1439.49609375 C105.72926315 1434.21657951 96.31154886 1428.86299752 86.91064453 1423.47558594 C78.69647501 1418.76952782 70.45846871 1414.10879866 62.19140625 1409.49609375 C53.32679906 1404.54998171 44.49875212 1399.54316953 35.69140625 1394.49609375 C26.77858818 1389.38907213 17.84615062 1384.3197009 8.87890625 1379.30859375 C7.86570312 1378.74205078 6.8525 1378.17550781 5.80859375 1377.59179688 C1.71222554 1375.30172197 -2.38442017 1373.01214636 -6.48193359 1370.72412109 C-9.59288484 1368.98510078 -12.70101683 1367.24113512 -15.80859375 1365.49609375 C-17.19655151 1364.7222937 -17.19655151 1364.7222937 -18.61254883 1363.93286133 C-23.71130641 1361.06419708 -28.61289287 1358.03775957 -33.41601562 1354.6953125 C-35.39953118 1353.33208451 -35.39953118 1353.33208451 -38.30859375 1352.49609375 C-39.3359375 1350.70703125 -39.3359375 1350.70703125 -40.30859375 1348.49609375 C-41.59294341 1346.29549465 -42.88397596 1344.09945775 -44.1875 1341.91015625 C-46.35140874 1337.25058969 -46.43295088 1332.37919992 -46.4242456 1327.30988324 C-46.42459538 1326.08004466 -46.42494516 1324.85020608 -46.42530555 1323.58309966 C-46.42060443 1322.22386223 -46.41581461 1320.8646251 -46.41094589 1319.50538826 C-46.40944881 1318.05120286 -46.40839919 1316.59701694 -46.40775639 1315.14283091 C-46.40471811 1311.13313189 -46.39541923 1307.12346762 -46.38518145 1303.11378142 C-46.37520749 1298.75667276 -46.37118998 1294.39955822 -46.36650205 1290.04244125 C-46.35752281 1282.40142925 -46.3450027 1274.7604296 -46.33021736 1267.11942673 C-46.3062756 1254.68895806 -46.28971227 1242.25848476 -46.27433777 1229.82800293 C-46.26890086 1225.48279116 -46.26343355 1221.13757943 -46.2579627 1216.7923677 C-46.25659527 1215.70033685 -46.25522783 1214.608306 -46.25381896 1213.48318331 C-46.24381229 1205.55036088 -46.23285406 1197.61754006 -46.2215867 1189.68471932 C-46.17491026 1156.51164652 -46.14984222 1123.33859925 -46.13751221 1090.16549683 C-46.13658283 1087.7448231 -46.13565143 1085.32414938 -46.13471803 1082.90347566 C-46.12670696 1061.90680876 -46.11993201 1040.91014149 -46.11393789 1019.91347392 C-46.10920702 1003.38355909 -46.10367517 986.8536447 -46.09716797 970.32373047 C-46.09668006 969.05585757 -46.09619215 967.78798467 -46.09568945 966.48169138 C-46.07957608 925.351092 -46.02377674 884.2206568 -45.9485443 843.09012691 C-45.87145485 800.81844411 -45.83705822 758.54693023 -45.85552699 716.27517628 C-45.85810743 710.30884644 -45.86018401 704.34251651 -45.86194611 698.37618637 C-45.86248633 696.61479709 -45.86248633 696.61479709 -45.86303747 694.81782418 C-45.86755177 675.89747788 -45.82665589 656.97748746 -45.76869586 638.05724065 C-45.71139865 619.05226614 -45.70094648 600.04773064 -45.73875883 581.04270305 C-45.75978872 569.74383151 -45.74433286 558.4463615 -45.67725082 547.1476623 C-45.63602298 539.60616723 -45.64169819 532.06566136 -45.68592389 524.52418541 C-45.70979095 520.22271455 -45.71286036 515.92394567 -45.65883633 511.62268771 C-45.61008519 507.70951623 -45.62106297 503.80124692 -45.67987599 499.88825525 C-45.69052553 498.48128632 -45.67933512 497.0739413 -45.6437493 495.66738216 C-45.54066497 491.30618789 -45.68991554 487.56969145 -47.30859375 483.49609375 C-51.29049061 479.89250169 -55.43867218 477.7773897 -60.30859375 475.49609375 C-62.13625326 474.46703536 -63.9571127 473.42562947 -65.765625 472.36328125 C-67.54963922 471.36384413 -69.33482693 470.36649925 -71.12109375 469.37109375 C-79.12275822 464.88055833 -87.07986322 460.3230536 -94.99609375 455.68359375 C-103.69492575 450.58820751 -112.42582512 445.55184563 -121.18359375 440.55859375 C-133.50896705 433.53027267 -145.80581589 426.45368856 -158.09082031 419.35498047 C-163.4953002 416.2328477 -168.90206787 413.11468171 -174.30859375 409.99609375 C-176.47527125 408.74611253 -178.64193792 407.49611254 -180.80859375 406.24609375 C-181.88109375 405.62734375 -182.95359375 405.00859375 -184.05859375 404.37109375 C-193.80859375 398.74609375 -193.80859375 398.74609375 -197.05810547 396.87133789 C-199.22635639 395.62044895 -201.39465072 394.36963523 -203.56298828 393.11889648 C-208.9557729 390.0081104 -214.34781468 386.89605137 -219.73828125 383.78125 C-231.54488859 376.96106738 -243.36886375 370.17286115 -255.21331787 363.41873169 C-263.27122678 358.822151 -271.30272148 354.18276743 -279.30859375 349.49609375 C-291.37972156 342.43097505 -303.5221513 335.49303027 -315.67382812 328.56787109 C-321.28530475 325.36980014 -326.89453315 322.16779366 -332.50305176 318.96453857 C-334.24229915 317.97144725 -335.98198087 316.97911672 -337.72167969 315.98681641 C-338.80223633 315.36983887 -339.88279297 314.75286133 -340.99609375 314.1171875 C-342.03765625 313.52276855 -343.07921875 312.92834961 -344.15234375 312.31591797 C-348.44229612 309.84242594 -352.69644235 307.30921186 -356.9453125 304.76586914 C-359.15509347 303.33832645 -359.15509347 303.33832645 -361.30859375 303.49609375 Z M323.28515625 306.46875 C322.16238281 307.11328125 321.03960938 307.7578125 319.8828125 308.421875 C318.6522977 309.13403503 317.42183022 309.84627682 316.19140625 310.55859375 C314.91948779 311.29074161 313.64734935 312.02250746 312.375 312.75390625 C309.10430448 314.63545031 305.83655734 316.52204785 302.56982422 318.41046143 C299.72596419 320.05407133 296.88049577 321.69489051 294.03515625 323.3359375 C290.85310184 325.1715318 287.67137028 327.00767213 284.49072266 328.84570312 C276.53118081 333.44353314 268.55163361 338.00561324 260.56640625 342.55859375 C251.91444766 347.49206109 243.2866312 352.46428788 234.69140625 357.49609375 C226.09617953 362.52790065 217.46828495 367.49998447 208.81640625 372.43359375 C199.72060638 377.62051801 190.63428362 382.82290881 181.56640625 388.05859375 C180.50035156 388.67412109 179.43429687 389.28964844 178.3359375 389.92382812 C175.12083102 391.78079569 171.90605247 393.63832954 168.69140625 395.49609375 C154.74296257 403.55698679 140.78136737 411.59318801 126.78668213 419.57345581 C118.72877413 424.17003598 110.69722839 428.80933535 102.69140625 433.49609375 C94.09617428 438.52790372 85.46804494 443.49955815 76.81640625 448.43359375 C67.60046304 453.69123669 58.38764851 458.95402052 49.19140625 464.24609375 C48.22734863 464.799021 47.26329102 465.35194824 46.27001953 465.92163086 C44.32049916 467.04492593 42.38948336 468.20095938 40.47848964 469.38861442 C37.65634538 471.06269744 34.81916916 472.23998176 31.75093579 473.39591813 C25.90969454 475.84174121 20.74828242 478.51833544 16.69140625 483.49609375 C13.14973655 492.53971423 14.03070636 502.99280748 14.24608239 512.5652617 C14.31510183 516.62293562 14.26729172 520.67955296 14.23453259 524.73744988 C14.19314022 531.84392681 14.22577032 538.94704888 14.30729675 546.05313492 C14.42817677 556.61880861 14.43399845 567.18237403 14.41645698 577.74861316 C14.39019748 595.52292718 14.45693199 613.29575265 14.57680511 631.06963348 C14.69517641 648.66596596 14.77212961 666.26167834 14.79386139 683.85840607 C14.79523618 684.95279515 14.79661097 686.04718423 14.79802743 687.17473661 C14.80479416 692.73266403 14.81082181 698.29059199 14.81656495 703.84852055 C14.85856521 743.20802937 14.99328871 782.56672849 15.18261719 821.92578125 C15.36632618 860.16076351 15.50798795 898.39552414 15.59277344 936.63085938 C15.59540396 937.80958523 15.59803448 938.98831109 15.60074472 940.20275591 C15.62711529 952.04008477 15.65263154 963.87741535 15.67752191 975.71474742 C15.72824517 999.82841848 15.78467022 1023.94207509 15.84454346 1048.0557251 C15.84728926 1049.16441387 15.85003506 1050.27310264 15.85286406 1051.41538804 C16.03685485 1125.44262661 16.35375634 1199.46941626 16.69140625 1273.49609375 C18.45889676 1272.5325212 20.22632578 1271.56883586 21.99372864 1270.60510254 C22.97797223 1270.0684623 23.96221582 1269.53182205 24.97628498 1268.97891998 C39.26706527 1261.17420638 53.41621678 1253.12254078 67.4621582 1244.88647461 C75.13406762 1240.39172622 82.84190159 1235.96211468 90.56640625 1231.55859375 C99.66237978 1226.37197677 108.74853139 1221.16927724 117.81640625 1215.93359375 C118.88246094 1215.31806641 119.94851563 1214.70253906 121.046875 1214.06835938 C124.26198148 1212.21139181 127.47676003 1210.35385796 130.69140625 1208.49609375 C144.63984993 1200.43520071 158.60144513 1192.39899949 172.59613037 1184.41873169 C180.65403837 1179.82215152 188.68558411 1175.18285215 196.69140625 1170.49609375 C205.28663297 1165.46428685 213.91452755 1160.49220303 222.56640625 1155.55859375 C231.66220612 1150.37166949 240.74852888 1145.16927869 249.81640625 1139.93359375 C250.88246094 1139.31806641 251.94851563 1138.70253906 253.046875 1138.06835938 C256.26198148 1136.21139181 259.47676003 1134.35385796 262.69140625 1132.49609375 C280.66206626 1122.11073667 298.66451107 1111.78341338 316.69140625 1101.49609375 C323.62140625 1097.53609375 323.62140625 1097.53609375 330.69140625 1093.49609375 C330.69140625 832.79609375 330.69140625 572.09609375 330.69140625 303.49609375 C327.69501388 303.49609375 325.8714126 304.9777239 323.28515625 306.46875 Z M1461.328125 518.99609375 C1460.39291016 519.54523437 1459.45769531 520.094375 1458.49414062 520.66015625 C1457.46611328 521.26601563 1456.43808594 521.871875 1455.37890625 522.49609375 C1446.1834644 527.89016103 1436.9553909 533.2207981 1427.69140625 538.49609375 C1418.99703892 543.44925749 1410.32642455 548.43988295 1401.69140625 553.49609375 C1393.09623335 558.52799165 1384.46828403 563.49998499 1375.81640625 568.43359375 C1366.72060638 573.62051801 1357.63428362 578.82290881 1348.56640625 584.05859375 C1347.50035156 584.67412109 1346.43429687 585.28964844 1345.3359375 585.92382812 C1342.12083102 587.78079569 1338.90605247 589.63832954 1335.69140625 591.49609375 C1321.74296257 599.55698679 1307.78136737 607.59318801 1293.78668213 615.57345581 C1285.72877413 620.17003598 1277.69722839 624.80933535 1269.69140625 629.49609375 C1261.09617953 634.52790065 1252.46828495 639.49998447 1243.81640625 644.43359375 C1231.49115429 651.46212882 1219.19418558 658.53849809 1206.90917969 665.63720703 C1201.50469975 668.75933982 1196.09790518 671.87745902 1190.69140625 674.99609375 C1184.25640625 678.70859375 1184.25640625 678.70859375 1177.69140625 682.49609375 C1169.11140625 687.44609375 1160.53140625 692.39609375 1151.69140625 697.49609375 C1151.69140625 815.63609375 1151.69140625 933.77609375 1151.69140625 1055.49609375 C1155.55490016 1053.95069619 1158.81561323 1052.38402824 1162.390625 1050.328125 C1163.5038916 1049.6899585 1164.6171582 1049.05179199 1165.76416016 1048.39428711 C1166.96912307 1047.69913841 1168.17403715 1047.00390505 1169.37890625 1046.30859375 C1170.63575424 1045.58640757 1171.89275537 1044.86448785 1173.14990234 1044.14282227 C1176.37777773 1042.28866308 1179.60329974 1040.43045422 1182.82794189 1038.57067871 C1185.68665829 1036.92217192 1188.54659079 1035.27577687 1191.40625 1033.62890625 C1196.76418734 1030.54130199 1202.11933126 1027.44888442 1207.47363281 1024.35498047 C1213.96265721 1020.60631341 1220.45477575 1016.86300708 1226.94628906 1013.11865234 C1232.33888939 1010.00791036 1237.73078447 1006.89596048 1243.12109375 1003.78125 C1254.92770109 996.96106738 1266.75167625 990.17286115 1278.59613037 983.41873169 C1286.65403837 978.82215152 1294.68558411 974.18285215 1302.69140625 969.49609375 C1311.28663297 964.46428685 1319.91452755 959.49220303 1328.56640625 954.55859375 C1337.66220612 949.37166949 1346.74852888 944.16927869 1355.81640625 938.93359375 C1356.88246094 938.31806641 1357.94851563 937.70253906 1359.046875 937.06835938 C1362.26198148 935.21139181 1365.47676003 933.35385796 1368.69140625 931.49609375 C1382.00817017 923.8002524 1395.33327315 916.1199115 1408.69140625 908.49609375 C1425.42218607 898.94647175 1442.13517746 889.36477538 1458.75390625 879.62109375 C1459.45668701 879.21004395 1460.15946777 878.79899414 1460.88354492 878.37548828 C1463.96404748 876.67600776 1463.96404748 876.67600776 1466.69140625 874.49609375 C1466.78906413 872.59346798 1466.81511951 870.68715753 1466.81445408 868.78202724 C1466.81644513 867.53298058 1466.81843618 866.28393391 1466.82048756 864.99703735 C1466.81763397 863.59294964 1466.81468836 862.18886212 1466.81166077 860.78477478 C1466.81209634 859.30723301 1466.81297099 857.82969131 1466.81424993 856.35215002 C1466.81649766 852.27263618 1466.81246984 848.19314833 1466.80747187 844.1136378 C1466.80317151 839.72165797 1466.8046135 835.32967971 1466.80537415 830.93769836 C1466.80589965 823.32186979 1466.80275014 815.70604974 1466.79713631 808.09022331 C1466.78902481 797.07888465 1466.78640645 786.06755013 1466.78514832 775.0562088 C1466.78295724 757.19298777 1466.77629566 739.32977129 1466.7668457 721.46655273 C1466.75767301 704.10945661 1466.75059148 686.75236173 1466.74633789 669.39526367 C1466.74607517 668.32618198 1466.74581244 667.25710029 1466.74554176 666.15562218 C1466.74423676 660.79259531 1466.74297305 655.42956843 1466.74172986 650.06654155 C1466.73135552 605.5430558 1466.71373571 561.01957501 1466.69140625 516.49609375 C1464.74067192 516.49609375 1462.9515893 518.03884968 1461.328125 518.99609375 Z M773.69140625 517.49609375 C773.48549474 562.87354474 773.32686432 608.25094635 773.23181828 653.62877227 C773.22056166 658.9836354 773.20891278 664.33849761 773.19702148 669.69335938 C773.19466069 670.75943499 773.1922999 671.8255106 773.18986756 672.92389153 C773.15068466 690.19530649 773.07971208 707.46645239 772.99703109 724.73770763 C772.91292546 742.45405423 772.86288959 760.17025973 772.8446098 777.88679779 C772.83224842 788.82275246 772.7931805 799.7579467 772.72015805 810.69366734 C772.67265571 818.18843006 772.65818893 825.68279855 772.66989385 833.17770095 C772.67567006 837.50493553 772.66669712 841.83083968 772.61855698 846.15783882 C772.57481065 850.11876611 772.57250584 854.07746673 772.6033162 858.03849576 C772.60712457 859.472016 772.59565476 860.9056742 772.56745761 862.33892216 C772.20583135 870.09831241 772.20583135 870.09831241 775.66420853 876.6437242 C777.95245551 878.19575065 780.16718681 879.37937166 782.69140625 880.49609375 C784.1446228 881.35944336 784.1446228 881.35944336 785.62719727 882.24023438 C786.89841431 882.93922852 786.89841431 882.93922852 788.1953125 883.65234375 C789.17024658 884.1922998 790.14518066 884.73225586 791.1496582 885.28857422 C792.68626099 886.13379639 792.68626099 886.13379639 794.25390625 886.99609375 C802.72559325 891.69723942 811.14766523 896.46760753 819.50390625 901.37109375 C828.19985175 906.47206335 836.93146738 911.50617755 845.69140625 916.49609375 C854.38558788 921.44958821 863.056383 926.43988005 871.69140625 931.49609375 C880.28657915 936.52799165 888.91452847 941.49998499 897.56640625 946.43359375 C912.04090994 954.68775011 926.47362471 963.01326747 940.90039062 971.35058594 C944.122089 973.21212047 947.34411704 975.07308214 950.56640625 976.93359375 C951.63246094 977.54912109 952.69851563 978.16464844 953.796875 978.79882812 C962.38136222 983.75062417 970.98720918 988.66434243 979.59613037 993.57345581 C988.63612333 998.73025983 997.63665946 1003.95153144 1006.61816406 1009.20947266 C1014.24046552 1013.66525806 1021.89678599 1018.0599466 1029.56640625 1022.43359375 C1038.84818087 1027.72726961 1048.12244667 1033.03320432 1057.37890625 1038.37109375 C1058.44858643 1038.98791016 1059.5182666 1039.60472656 1060.62036133 1040.24023438 C1067.73498949 1044.34965511 1074.82829228 1048.49392319 1081.88354492 1052.70458984 C1084.61432879 1054.6394351 1084.61432879 1054.6394351 1087.69140625 1055.49609375 C1087.98890923 1010.02540981 1088.21800462 964.55482881 1088.35525553 919.08336362 C1088.37151488 913.71605593 1088.38834105 908.34875015 1088.40551758 902.98144531 C1088.40892761 901.91290371 1088.41233765 900.8443621 1088.41585102 899.74344045 C1088.47243098 882.43765572 1088.57493663 865.13243192 1088.6943926 847.82698005 C1088.81592861 830.07222159 1088.88816291 812.31775704 1088.91455668 794.56259966 C1088.93240213 783.60479455 1088.98877549 772.64857477 1089.09432032 761.69125766 C1089.16299759 754.17910187 1089.18381772 746.6677665 1089.16692416 739.15531951 C1089.15858936 734.81917043 1089.17142688 730.48579217 1089.24107742 726.15013504 C1089.30441458 722.17847137 1089.30751703 718.21143549 1089.26309188 714.23955733 C1089.257604 712.80460702 1089.27406361 711.3693665 1089.31488762 709.93498653 C1089.43395758 705.4923774 1089.29906333 701.66188696 1087.69140625 697.49609375 C1083.72218376 693.85668133 1079.57255483 691.78564767 1074.69140625 689.49609375 C1072.52137908 688.26198921 1070.3597338 687.01289848 1068.2109375 685.7421875 C1065.97641905 684.47061802 1063.74070155 683.20115377 1061.50390625 681.93359375 C1059.03062185 680.52714446 1056.5582978 679.11901045 1054.0859375 677.7109375 C1053.46542511 677.35780487 1052.84491272 677.00467224 1052.20559692 676.64083862 C1046.01931475 673.11834316 1039.85416942 669.55955445 1033.69140625 665.99609375 C1025.25797904 661.12153297 1016.80961264 656.27401845 1008.34765625 651.44921875 C998.1195529 645.61740544 987.92550609 639.73107145 977.76464844 633.78271484 C970.14234847 629.32693031 962.48609314 624.93212229 954.81640625 620.55859375 C940.34190256 612.30443739 925.90918779 603.97892003 911.48242188 595.64160156 C908.2607235 593.78006703 905.03869546 591.91910536 901.81640625 590.05859375 C900.21732422 589.13530273 900.21732422 589.13530273 898.5859375 588.19335938 C890.00145028 583.24156333 881.39560332 578.32784507 872.78668213 573.41873169 C863.74668917 568.26192767 854.74615304 563.04065606 845.76464844 557.78271484 C836.97746263 552.64597045 828.14211202 547.59508051 819.30004883 542.55371094 C808.87183787 536.60696069 798.47232255 530.61146744 788.078125 524.60546875 C787.14403809 524.06728516 786.20995117 523.52910156 785.24755859 522.97460938 C783.65510511 522.05351116 782.06620886 521.12620027 780.48291016 520.18945312 C777.30320263 518.1598462 777.30320263 518.1598462 773.69140625 517.49609375 Z M735.21484375 933.50390625 C733.51521484 934.4784375 733.51521484 934.4784375 731.78125 935.47265625 C730.54289658 936.18867728 729.30461723 936.90482644 728.06640625 937.62109375 C726.78923558 938.35576972 725.51188979 939.09014134 724.234375 939.82421875 C715.390256 944.91219329 706.57612613 950.05153563 697.77050781 955.20581055 C690.14648495 959.66321198 682.48809249 964.05892511 674.81640625 968.43359375 C665.72060638 973.62051801 656.63428362 978.82290881 647.56640625 984.05859375 C645.96732422 984.98188477 645.96732422 984.98188477 644.3359375 985.92382812 C641.12083102 987.78079569 637.90605247 989.63832954 634.69140625 991.49609375 C620.74296257 999.55698679 606.78136737 1007.59318801 592.78668213 1015.57345581 C584.72877413 1020.17003598 576.69722839 1024.80933535 568.69140625 1029.49609375 C560.09617953 1034.52790065 551.46828495 1039.49998447 542.81640625 1044.43359375 C533.72060638 1049.62051801 524.63428362 1054.82290881 515.56640625 1060.05859375 C514.50035156 1060.67412109 513.43429687 1061.28964844 512.3359375 1061.92382812 C509.12083102 1063.78079569 505.90605247 1065.63832954 502.69140625 1067.49609375 C488.74296257 1075.55698679 474.78136737 1083.59318801 460.78668213 1091.57345581 C452.72877413 1096.17003598 444.69722839 1100.80933535 436.69140625 1105.49609375 C428.09617953 1110.52790065 419.46828495 1115.49998447 410.81640625 1120.43359375 C401.72060638 1125.62051801 392.63428362 1130.82290881 383.56640625 1136.05859375 C382.50035156 1136.67412109 381.43429687 1137.28964844 380.3359375 1137.92382812 C377.12083102 1139.78079569 373.90605247 1141.63832954 370.69140625 1143.49609375 C356.74296257 1151.55698679 342.78136737 1159.59318801 328.78668213 1167.57345581 C320.72877413 1172.17003598 312.69722839 1176.80933535 304.69140625 1181.49609375 C296.09617953 1186.52790065 287.46828495 1191.49998447 278.81640625 1196.43359375 C266.49115429 1203.46212882 254.19418558 1210.53849809 241.90917969 1217.63720703 C235.42015529 1221.38587409 228.92803675 1225.12918042 222.43652344 1228.87353516 C217.04392311 1231.98427714 211.65202803 1235.09622702 206.26171875 1238.2109375 C194.45511141 1245.03112012 182.63113625 1251.81932635 170.78668213 1258.57345581 C162.72877413 1263.17003598 154.69722839 1267.80933535 146.69140625 1272.49609375 C138.09617953 1277.52790065 129.46828495 1282.49998447 120.81640625 1287.43359375 C110.65692892 1293.22708527 100.51089065 1299.04278903 90.38647461 1304.89746094 C85.35946369 1307.80440643 80.32987363 1310.7063664 75.28710938 1313.58589172 C72.89277095 1314.95341348 70.50020092 1316.32401317 68.10772705 1317.6947937 C66.42426156 1318.65765275 64.73828647 1319.61611982 63.05224609 1320.57446289 C62.02953613 1321.16090576 61.00682617 1321.74734863 59.953125 1322.3515625 C59.05553467 1322.86356201 58.15794434 1323.37556152 57.2331543 1323.90307617 C54.54405976 1325.58844183 52.13089473 1327.46972454 49.69140625 1329.49609375 C50.30209961 1329.83640625 50.91279297 1330.17671875 51.54199219 1330.52734375 C63.96210098 1337.45350008 76.35314262 1344.4252923 88.69140625 1351.49609375 C99.65432703 1357.77789372 110.66105183 1363.97791686 121.69140625 1370.140625 C136.63173787 1378.48920915 151.50494966 1386.95470392 166.35708618 1395.45892334 C175.62598183 1400.76450714 184.93090997 1406.00291829 194.25732422 1411.20678711 C202.69435327 1415.92120538 211.08683186 1420.71118547 219.47216797 1425.51660156 C227.68633749 1430.22265968 235.92434379 1434.88338884 244.19140625 1439.49609375 C253.65354935 1444.77560799 263.07126364 1450.12918998 272.47216797 1455.51660156 C280.68633749 1460.22265968 288.92434379 1464.88338884 297.19140625 1469.49609375 C304.86372424 1473.77695398 312.51483955 1478.09244272 320.13671875 1482.46240234 C322.4915519 1483.81205084 324.85098419 1485.15304376 327.21484375 1486.48681641 C332.5054899 1489.47889676 337.75500506 1492.50016314 342.88989258 1495.7543335 C344.57070686 1496.81502463 346.26576041 1497.85304274 347.9609375 1498.890625 C350.05553831 1500.1747394 352.12803219 1501.49592023 354.171875 1502.859375 C357.07613229 1504.60668396 359.36881723 1505.8115187 362.69140625 1506.49609375 C367.23762448 1505.33030157 370.78911009 1503.04806543 374.69140625 1500.49609375 C376.53509663 1499.43707593 378.38270176 1498.38484095 380.234375 1497.33984375 C382.11773828 1496.22839415 383.99918715 1495.11369545 385.87890625 1493.99609375 C394.26031167 1489.05780337 402.68913508 1484.22320463 411.19140625 1479.49609375 C419.41360613 1474.92074976 427.57722808 1470.26038185 435.69140625 1465.49609375 C444.84053914 1460.12412582 454.06543756 1454.9053285 463.3359375 1449.74609375 C470.5049432 1445.74644923 477.61233388 1441.65261331 484.69140625 1437.49609375 C493.84053914 1432.12412582 503.06543756 1426.9053285 512.3359375 1421.74609375 C519.5049432 1417.74644923 526.61233388 1413.65261331 533.69140625 1409.49609375 C542.84194686 1404.12329926 552.06809 1398.90336935 561.34033203 1393.74389648 C568.46768892 1389.7679374 575.53079717 1385.69445377 582.56640625 1381.55859375 C592.16706129 1375.91710212 601.87092877 1370.48396761 611.62011719 1365.10400391 C620.07892437 1360.42365788 628.43977265 1355.59423041 636.7734375 1350.6953125 C643.86301773 1346.53709107 651.0094672 1342.49243245 658.19140625 1338.49609375 C666.41343215 1333.92042975 674.57722055 1329.26038627 682.69140625 1324.49609375 C691.84053914 1319.12412582 701.06543756 1313.9053285 710.3359375 1308.74609375 C717.5049432 1304.74644923 724.61233388 1300.65261331 731.69140625 1296.49609375 C740.84053914 1291.12412582 750.06543756 1285.9053285 759.3359375 1280.74609375 C766.5049432 1276.74644923 773.61233388 1272.65261331 780.69140625 1268.49609375 C789.84053914 1263.12412582 799.06543756 1257.9053285 808.3359375 1252.74609375 C815.50494689 1248.74644716 822.61224393 1244.65246403 829.69140625 1240.49609375 C838.75324884 1235.177701 847.88333324 1229.99738266 857.0612793 1224.88232422 C864.90237482 1220.50857775 872.71171547 1216.08122208 880.50390625 1211.62109375 C881.08636108 1211.2877301 881.66881592 1210.95436646 882.2689209 1210.61090088 C885.22734157 1208.91735661 888.18530491 1207.22301549 891.14306641 1205.52832031 C896.40761682 1202.51241086 901.67616125 1199.50349164 906.94442749 1196.49407959 C909.86025264 1194.82837404 912.77581612 1193.16221061 915.69140625 1191.49609375 C916.85807166 1190.82942489 918.02473833 1190.16275823 919.19140625 1189.49609375 C919.76890625 1189.16609375 920.34640625 1188.83609375 920.94140625 1188.49609375 C941.35807292 1176.82942708 961.77473958 1165.16276042 982.19140625 1153.49609375 C982.76886093 1153.16611893 983.34631561 1152.8361441 983.94126892 1152.49617004 C985.10839085 1151.82924468 986.27551528 1151.16232371 987.44264221 1150.4954071 C990.35236392 1148.83273434 993.2620426 1147.16998637 996.17163086 1145.50708008 C1002.72523507 1141.76164655 1009.27980298 1138.01791148 1015.83609009 1134.2771759 C1018.81305308 1132.57829792 1021.78901717 1130.87771781 1024.76269531 1129.1730957 C1030.05243645 1126.14158573 1035.34760808 1123.12286518 1040.671875 1120.15234375 C1042.01946899 1119.39304565 1042.01946899 1119.39304565 1043.39428711 1118.6184082 C1045.04495552 1117.68857227 1046.70047089 1116.76726828 1048.36157227 1115.85620117 C1050.18859233 1114.82042817 1051.94956719 1113.66947548 1053.69140625 1112.49609375 C1053.69140625 1111.50609375 1053.69140625 1110.51609375 1053.69140625 1109.49609375 C1053.05976562 1109.14530762 1052.428125 1108.79452148 1051.77734375 1108.43310547 C1038.0243849 1100.78624236 1024.35771574 1093.01519336 1010.78125 1085.05859375 C1001.20587396 1079.44805814 991.58152909 1073.92211463 981.96484375 1068.3828125 C978.72665465 1066.51640995 975.49001187 1064.64735612 972.25390625 1062.77734375 C960.45023464 1055.9578827 948.62861299 1049.17142229 936.78668213 1042.41873169 C927.74668917 1037.26192767 918.74615304 1032.04065606 909.76464844 1026.78271484 C902.14234847 1022.32693031 894.48609314 1017.93212229 886.81640625 1013.55859375 C872.34190256 1005.30443739 857.90918779 996.97892003 843.48242188 988.64160156 C840.2607235 986.78006703 837.03869546 984.91910536 833.81640625 983.05859375 C832.21732422 982.13530273 832.21732422 982.13530273 830.5859375 981.19335938 C823.18423587 976.9238304 815.76776233 972.68084001 808.34509277 968.44793701 C799.06015153 963.1529525 789.79379577 957.82847962 780.56640625 952.43359375 C776.60811431 950.12102288 772.6498161 947.80846278 768.69140625 945.49609375 C768.11962646 945.16188416 767.54784668 944.82767456 766.95874023 944.4833374 C763.33465092 942.36551789 759.70787907 940.25241105 756.07769775 938.14505005 C754.34673653 937.13872677 752.61841102 936.12787423 750.89013672 935.11694336 C749.84744629 934.51245361 748.80475586 933.90796387 747.73046875 933.28515625 C746.80443848 932.74584473 745.8784082 932.2065332 744.92431641 931.65087891 C740.82340651 929.53002784 739.0185985 931.31463812 735.21484375 933.50390625 Z M1080.87109375 1170.06640625 C1079.87335937 1170.62585937 1078.875625 1171.1853125 1077.84765625 1171.76171875 C1076.76484375 1172.3753125 1075.68203125 1172.98890625 1074.56640625 1173.62109375 C1072.88417969 1174.56855469 1072.88417969 1174.56855469 1071.16796875 1175.53515625 C1062.63343853 1180.35110194 1054.16709134 1185.28149904 1045.71630859 1190.24267578 C1037.55464625 1195.02305899 1029.3114964 1199.64665228 1021.046875 1204.24609375 C1013.8778693 1208.24573827 1006.77047862 1212.33957419 999.69140625 1216.49609375 C990.54227336 1221.86806168 981.31737494 1227.086859 972.046875 1232.24609375 C964.87786668 1236.24573974 957.7705404 1240.33967627 950.69140625 1244.49609375 C941.46705525 1249.91060074 932.17126153 1255.18240069 922.8293457 1260.39111328 C913.70002883 1265.48233984 904.6204571 1270.6565185 895.55273438 1275.85644531 C890.67452398 1278.65184301 885.79206371 1281.4398025 880.9100647 1284.22857666 C877.91904297 1285.93724875 874.92828564 1287.64638349 871.9375 1289.35546875 C870.72640099 1290.04752823 869.51530073 1290.73958552 868.30419922 1291.43164062 C867.40686066 1291.94440552 867.40686066 1291.94440552 866.49139404 1292.4675293 C749.19140623 1359.49609376 749.19140623 1359.49609376 747.44148254 1360.49604797 C746.27455906 1361.16286285 745.10763808 1361.8296821 743.9407196 1362.49650574 C741.02800274 1364.16094076 738.1152427 1365.82530014 735.20239258 1367.48950195 C729.90520265 1370.51605079 724.60835808 1373.54319699 719.31307983 1376.5730896 C707.02678321 1383.6030983 694.73065723 1390.61450686 682.40185547 1397.56982422 C671.33363764 1403.81878345 660.30405998 1410.13533021 649.27197266 1416.44775391 C643.99471106 1419.46710054 638.71547809 1422.48299694 633.43637085 1425.49911499 C630.52129978 1427.16462955 627.60635972 1428.83037338 624.69140625 1430.49609375 C623.52474021 1431.16276151 622.35807354 1431.82942818 621.19140625 1432.49609375 C620.61390625 1432.82609375 620.03640625 1433.15609375 619.44140625 1433.49609375 C530.19140623 1484.49609376 530.19140623 1484.49609376 528.44145203 1485.49606323 C527.27462776 1486.16282286 526.10780851 1486.82959125 524.94099426 1487.49636841 C522.02677979 1489.16168463 519.11247883 1490.82684912 516.19799805 1492.49169922 C510.91864961 1495.50763981 505.63996681 1498.52471716 500.36447144 1501.5473938 C497.41137609 1503.23937215 494.45777636 1504.93046839 491.50390625 1506.62109375 C490.63239929 1507.11993073 490.63239929 1507.11993073 489.74328613 1507.62884521 C481.50355474 1512.34279273 473.23343783 1516.9997737 464.94140625 1521.62109375 C455.80785677 1526.71216057 446.75767707 1531.93077204 437.74291992 1537.22900391 C429.28514723 1542.18611905 420.74008466 1546.978523 412.15039062 1551.703125 C411.17521484 1552.24324219 410.20003906 1552.78335937 409.1953125 1553.33984375 C407.92409546 1554.03883789 407.92409546 1554.03883789 406.62719727 1554.75195312 C405.65838623 1555.32751953 404.6895752 1555.90308594 403.69140625 1556.49609375 C402.95966456 1556.81805666 402.22792287 1557.14001957 401.47400719 1557.47173893 C398.70585749 1558.89330735 396.7988696 1560.19199475 394.69140625 1562.49609375 C393.33893831 1567.26143084 393.51355779 1572.01028287 393.6091156 1576.9225769 C393.60518981 1578.4168232 393.59730748 1579.91106345 393.58581311 1581.4052707 C393.56569007 1585.50847745 393.60167782 1589.60956954 393.64681566 1593.71250677 C393.68567674 1598.13779951 393.67252994 1602.56297269 393.66569519 1606.98838806 C393.66097557 1614.65461368 393.68921595 1622.32015001 393.73983574 1629.98620224 C393.81297504 1641.06990709 393.83641816 1652.15327859 393.84772766 1663.23719861 C393.86742614 1681.2198448 393.92732243 1699.20212361 394.01245117 1717.18457031 C394.09506047 1734.65297609 394.15876711 1752.12128208 394.19702148 1769.58984375 C394.199386 1770.66657281 394.20175051 1771.74330188 394.20418667 1772.85265909 C394.21593199 1778.25428438 394.22730537 1783.65591037 394.2384938 1789.05753684 C394.3317968 1833.87064363 394.49031715 1878.68334973 394.69140625 1923.49609375 C398.45856862 1922.02638301 401.88193889 1920.34588595 405.390625 1918.328125 C406.5038916 1917.6899585 407.6171582 1917.05179199 408.76416016 1916.39428711 C409.96912307 1915.69913841 411.17403715 1915.00390505 412.37890625 1914.30859375 C413.63575424 1913.58640757 414.89275537 1912.86448785 416.14990234 1912.14282227 C419.37777773 1910.28866308 422.60329974 1908.43045422 425.82794189 1906.57067871 C428.68665829 1904.92217192 431.54659079 1903.27577687 434.40625 1901.62890625 C439.76418734 1898.54130199 445.11933126 1895.44888442 450.47363281 1892.35498047 C456.96265721 1888.60631341 463.45477575 1884.86300708 469.94628906 1881.11865234 C475.33888939 1878.00791036 480.73078447 1874.89596048 486.12109375 1871.78125 C497.92770109 1864.96106738 509.75167625 1858.17286115 521.59613037 1851.41873169 C529.65403837 1846.82215152 537.68558411 1842.18285215 545.69140625 1837.49609375 C554.28663297 1832.46428685 562.91452755 1827.49220303 571.56640625 1822.55859375 C580.66220612 1817.37166949 589.74852888 1812.16927869 598.81640625 1806.93359375 C599.88246094 1806.31806641 600.94851563 1805.70253906 602.046875 1805.06835938 C605.26198148 1803.21139181 608.47676003 1801.35385796 611.69140625 1799.49609375 C625.63984993 1791.43520071 639.60144513 1783.39899949 653.59613037 1775.41873169 C661.65403837 1770.82215152 669.68558411 1766.18285215 677.69140625 1761.49609375 C686.28663297 1756.46428685 694.91452755 1751.49220303 703.56640625 1746.55859375 C712.66220612 1741.37166949 721.74852888 1736.16927869 730.81640625 1730.93359375 C731.88246094 1730.31806641 732.94851563 1729.70253906 734.046875 1729.06835938 C737.26198148 1727.21139181 740.47676003 1725.35385796 743.69140625 1723.49609375 C757.63984993 1715.43520071 771.60144513 1707.39899949 785.59613037 1699.41873169 C793.65403837 1694.82215152 801.68558411 1690.18285215 809.69140625 1685.49609375 C818.28663297 1680.46428685 826.91452755 1675.49220303 835.56640625 1670.55859375 C844.66220612 1665.37166949 853.74852888 1660.16927869 862.81640625 1654.93359375 C864.41548828 1654.01030273 864.41548828 1654.01030273 866.046875 1653.06835938 C869.26198148 1651.21139181 872.47676003 1649.35385796 875.69140625 1647.49609375 C889.63984993 1639.43520071 903.60144513 1631.39899949 917.59613037 1623.41873169 C925.65403837 1618.82215152 933.68558411 1614.18285215 941.69140625 1609.49609375 C950.28663297 1604.46428685 958.91452755 1599.49220303 967.56640625 1594.55859375 C979.89165821 1587.53005868 992.18862692 1580.45368941 1004.47363281 1573.35498047 C1010.96265721 1569.60631341 1017.45477575 1565.86300708 1023.94628906 1562.11865234 C1029.33888939 1559.00791036 1034.73078447 1555.89596048 1040.12109375 1552.78125 C1055.9511877 1543.63817149 1071.81875699 1534.56617904 1087.69140625 1525.49609375 C1087.69140625 1407.35609375 1087.69140625 1289.21609375 1087.69140625 1167.49609375 C1084.88317425 1167.49609375 1083.31813469 1168.68969486 1080.87109375 1170.06640625 Z " fill="#FF2C1F" transform="translate(425.30859375,2.50390625)"/>
</svg>
